<?xml version="1.0" standalone="no"?><svg xmlns="http://www.w3.org/2000/svg" viewBox="0 0 1440 320"><path fill="#0099ff" fill-opacity="1" d="M0,160L17.1,181.3C34.3,203,69,245,103,250.7C137.1,256,171,224,206,197.3C240,171,274,149,309,170.7C342.9,192,377,256,411,256C445.7,256,480,192,514,181.3C548.6,171,583,213,617,240C651.4,267,686,277,720,272C754.3,267,789,245,823,245.3C857.1,245,891,267,926,261.3C960,256,994,224,1029,186.7C1062.9,149,1097,107,1131,74.7C1165.7,43,1200,21,1234,32C1268.6,43,1303,85,1337,96C1371.4,107,1406,85,1423,74.7L1440,64L1440,0L1422.9,0C1405.7,0,1371,0,1337,0C1302.9,0,1269,0,1234,0C1200,0,1166,0,1131,0C1097.1,0,1063,0,1029,0C994.3,0,960,0,926,0C891.4,0,857,0,823,0C788.6,0,754,0,720,0C685.7,0,651,0,617,0C582.9,0,549,0,514,0C480,0,446,0,411,0C377.1,0,343,0,309,0C274.3,0,240,0,206,0C171.4,0,137,0,103,0C68.6,0,34,0,17,0L0,0Z"></path></svg>